<svg xmlns="http://www.w3.org/2000/svg" viewBox="0 0 460.82 87.24"><defs><linearGradient id="g" x1="0" y1="0" x2="1" y2="0"><stop offset="0%" stop-color="#3A7BD5"/><stop offset="100%" stop-color="#00D2FF"/></linearGradient><clipPath id="clipFull"><circle cx="45.285" cy="43.62" r="18"/></clipPath><clipPath id="clipFade"><circle cx="45.285" cy="43.62" r="23"/></clipPath></defs><g transform="translate(0.9472 -0.0000) scale(0.143635)"><g transform="translate(-20.515289,626.383869) scale(0.100000,-0.100000)" fill="url(#g)" stroke="none"><path d="M3130 6250 c-36 -9 -73 -44 -102 -98 -17 -31 -18 -32 -90 -32 -1203 -2 -2416 -1052 -2677 -2320 -50 -241 -56 -305 -56 -585 0 -371 18 -434 126 -451 35 -6 39 -10 44 -43 217 -1438 1517 -2532 3007 -2531 1432 1 2723 1078 2993 2498 23 120 -74 316 -120 242 -3 -6 -20 -10 -36 -10 -87 0 -119 -42 -155 -200 -484 -2132 -3123 -3010 -4742 -1577 -474 420 -769 897 -911 1476 -30 119 -28 133 16 162 77 50 79 58 65 242 -115 1543 850 2805 2341 3062 196 34 194 34 207 -14 21 -78 104 -118 220 -107 389 38 1077 -127 1508 -363 960 -523 1505 -1405 1505 -2436 1 -243 19 -231 36 25 88 1265 -784 2506 -2048 2914 -368 119 -934 192 -1131 146z"/><path d="M3025 5883 c-503 -42 -775 -128 -775 -243 0 -33 -21 -51 -85 -70 -64 -19 -293 -133 -388 -194 -1067 -674 -1488 -1971 -1030 -3171 59 -154 79 -175 168 -175 32 0 37 -4 64 -57 223 -440 649 -849 1126 -1085 66 -32 128 -63 138 -69 56 -31 262 -101 408 -138 1711 -440 3399 897 3399 2691 0 227 -14 260 -122 292 -10 3 -19 20 -23 43 -219 1294 -1536 2290 -2880 2176z m674 -258 c1030 -131 1861 -812 2146 -1757 57 -188 57 -191 2 -217 -78 -38 -81 -49 -83 -346 -3 -460 -89 -837 -265 -1162 -797 -1471 -2668 -1868 -3929 -834 -293 241 -649 698 -584 752 57 47 56 98 -7 256 -506 1279 -47 2577 1133 3202 134 71 130 71 169 27 46 -53 85 -62 167 -37 432 130 843 168 1251 116z"/><path d="M2966 5540 c-564 -65 -1231 -349 -1231 -526 0 -54 0 -54 -128 -175 -834 -791 -954 -2040 -291 -3029 165 -246 202 -279 293 -258 50 11 52 11 84 -18 1638 -1514 4364 16 3956 2220 -63 341 -143 511 -240 511 -41 0 -41 0 -96 95 -472 801 -1433 1284 -2347 1180z m702 -185 c626 -77 1181 -391 1537 -870 147 -197 153 -211 115 -249 -52 -54 -50 -86 14 -276 716 -2127 -1716 -3846 -3529 -2495 -142 106 -142 105 -120 150 24 53 13 85 -67 183 -686 848 -767 1981 -197 2768 90 124 112 151 210 257 106 113 116 119 156 87 43 -34 91 -26 169 26 507 341 1120 491 1712 419z"/><path d="M3020 5244 c-537 -64 -962 -257 -1336 -606 -169 -158 -188 -192 -149 -268 14 -28 13 -31 -41 -117 -608 -963 -240 -2351 784 -2962 109 -65 149 -68 197 -15 33 36 33 36 167 -9 220 -75 671 -143 643 -97 -3 6 -32 10 -63 10 -140 1 -474 66 -654 128 -48 16 -53 22 -59 53 -9 56 -26 76 -97 115 -973 540 -1393 1734 -942 2679 76 161 85 171 134 155 54 -18 85 -1 161 89 242 287 653 544 1049 657 245 70 669 96 896 56 327 -59 632 -188 860 -366 158 -123 172 -137 157 -160 -38 -58 -29 -100 40 -183 436 -534 571 -1293 336 -1893 -176 -451 -547 -851 -967 -1046 -160 -73 -458 -164 -540 -164 -25 0 -35 -13 -18 -24 23 -14 386 73 502 120 1241 501 1667 1934 914 3071 -113 171 -140 190 -220 161 -32 -11 -33 -10 -120 70 -434 398 -1077 612 -1634 546z"/><path d="M3030 4980 c-569 -67 -1082 -372 -1382 -821 -149 -224 -172 -292 -120 -351 29 -31 29 -31 10 -92 -316 -1007 399 -2171 1507 -2455 338 -87 495 -71 495 49 0 85 -47 114 -212 128 -1191 107 -2065 1245 -1768 2303 9 32 13 35 46 36 56 2 82 29 143 148 430 839 1439 1219 2278 860 159 -68 147 -50 -21 31 -293 142 -652 202 -976 164z"/><path d="M3065 4753 c-655 -82 -1187 -514 -1389 -1128 -69 -210 -70 -281 -5 -312 26 -13 26 -14 32 -155 37 -921 857 -1676 1812 -1671 350 2 595 71 595 168 0 33 3 36 102 87 987 506 1190 1900 398 2732 -273 287 -450 363 -450 193 0 -55 6 -62 119 -149 998 -770 957 -2148 -83 -2763 -90 -53 -83 -52 -118 -18 -37 35 -77 35 -188 1 -986 -301 -2029 360 -2165 1372 -23 169 -22 184 20 199 44 15 55 36 72 133 134 776 886 1361 1641 1280 187 -21 200 -8 25 23 -81 14 -333 19 -418 8z"/><path d="M3685 4728 c-56 -44 -15 -132 79 -167 1028 -385 1386 -1599 687 -2333 -43 -45 -46 -47 -88 -41 -39 5 -48 2 -115 -44 -778 -538 -1805 -285 -2220 545 -70 141 -82 139 -20 -3 370 -847 1349 -1194 2187 -775 211 106 240 130 240 208 0 60 1 62 51 114 548 569 514 1506 -76 2098 -256 255 -639 466 -725 398z"/><path d="M3267 4590 c-28 -25 -43 -30 -83 -30 -476 -1 -1017 -360 -1229 -816 -142 -306 -177 -775 -60 -814 27 -9 35 -18 45 -56 7 -24 15 -43 17 -40 2 2 -1 22 -8 44 -11 38 -10 43 14 71 25 30 25 30 20 218 -18 657 426 1219 1072 1356 123 27 195 31 195 14 0 -44 43 -69 131 -77 876 -81 1462 -909 1199 -1695 -36 -110 -33 -118 9 -23 240 536 -10 1276 -551 1634 -263 173 -684 290 -771 214z"/><path d="M3095 4420 c-104 -14 -127 -23 -147 -58 -10 -19 -13 -32 -7 -32 6 0 20 -12 32 -26 23 -29 11 -29 231 -3 667 78 1288 -480 1297 -1166 1 -60 2 -66 10 -40 12 36 3 191 -17 297 -124 658 -745 1113 -1399 1028z"/><path d="M2810 4301 c-335 -140 -601 -399 -711 -694 -16 -45 -35 -93 -41 -107 -95 -232 -27 -810 96 -810 30 0 60 52 52 91 -3 17 -1 29 5 29 6 0 7 -4 4 -10 -3 -5 -2 -10 3 -10 6 0 13 -11 16 -24 43 -174 158 -280 191 -176 10 31 18 25 73 -48 107 -143 178 -178 190 -94 4 26 24 29 43 5 16 -19 157 -113 170 -113 15 0 49 43 49 62 0 22 3 22 65 -1 87 -32 121 -35 139 -10 13 19 21 21 60 16 51 -7 76 -1 76 18 0 8 21 15 58 19 124 15 152 29 136 70 -9 23 -26 25 -104 15 -138 -17 -317 17 -395 75 -47 35 -55 39 -49 23 43 -113 -183 95 -254 234 -24 46 -41 71 -37 54 13 -61 79 -176 141 -247 68 -77 74 -117 9 -60 -151 133 -253 347 -274 572 -8 95 -8 95 -10 -3 -2 -192 58 -377 171 -521 41 -52 42 -82 1 -44 -208 194 -299 569 -217 893 3 15 1 13 -9 -5 -97 -170 -65 -561 63 -786 46 -79 18 -74 -30 6 -130 214 -179 437 -147 661 28 193 14 222 -32 69 -43 -140 -37 -371 14 -557 32 -116 16 -128 -24 -17 -81 223 -88 500 -17 629 13 22 29 56 36 75 14 37 80 151 135 235 51 77 212 227 283 264 44 23 115 -23 72 -46 -156 -86 -203 -139 -156 -179 28 -25 28 -25 -18 -74 -46 -49 -59 -93 -36 -116 7 -7 2 -21 -15 -45 -36 -48 -29 -83 23 -105 2 -1 -4 -20 -13 -42 -22 -55 -17 -86 15 -90 23 -3 29 4 50 55 68 164 172 284 315 362 25 13 30 19 15 15 -30 -8 -101 -45 -152 -79 -47 -31 -49 -22 -5 18 126 115 255 161 454 162 107 0 145 3 130 10 -62 27 -317 10 -421 -28 -144 -53 -143 -28 1 33 253 107 554 79 764 -71 16 -11 29 -18 29 -15 0 11 -126 90 -194 121 -177 81 -437 89 -624 18 -37 -14 -65 -13 -50 2 20 21 217 76 303 86 272 30 502 -48 735 -250 80 -70 49 -29 -49 63 -226 214 -584 308 -880 231 -56 -14 -84 -14 -70 -1 3 3 49 17 104 31 462 122 940 -92 1191 -533 53 -93 58 -79 8 21 -275 546 -900 785 -1436 550 -40 -18 -58 -32 -60 -46 -2 -13 -35 -42 -93 -81 -161 -110 -321 -292 -383 -437 -11 -24 -30 -58 -44 -74 -76 -91 -111 -396 -69 -605 14 -68 -5 -70 -24 -3 -155 529 192 1177 740 1380 29 10 29 11 5 11 -14 0 -54 -12 -90 -27z"/><path d="M3810 3681 c0 -11 22 -46 49 -78 107 -129 157 -278 149 -451 -4 -77 -2 -99 6 -85 6 10 12 78 14 151 4 146 13 165 32 66 21 -110 -20 -328 -78 -415 -50 -77 -91 -128 -132 -167 -25 -24 -36 -39 -25 -33 123 60 285 364 285 534 0 38 4 67 10 67 19 0 11 -170 -11 -250 -43 -157 -182 -358 -299 -433 -25 -16 -25 -16 8 -7 90 24 233 175 297 315 35 75 75 209 75 250 0 14 5 25 11 25 8 0 10 -19 5 -63 -34 -332 -252 -576 -629 -702 -105 -35 -97 -49 13 -20 320 83 545 266 656 534 43 103 55 100 23 -5 -128 -415 -654 -719 -1109 -641 -30 5 -29 4 10 -9 410 -142 1019 162 1196 597 101 248 74 492 -39 348 -24 -31 -24 -31 -29 62 -5 88 -21 149 -39 149 -5 0 -17 10 -29 22 -20 22 -20 22 -44 -1 -24 -23 -24 -23 -31 1 -30 100 -100 172 -145 148 -15 -8 -19 -5 -24 14 -7 27 -33 41 -50 26 -9 -7 -24 2 -51 30 -42 43 -75 52 -75 21z m490 -660 c0 -6 -4 -13 -10 -16 -5 -3 -10 1 -10 9 0 9 5 16 10 16 6 0 10 -4 10 -9z"/><path d="M4444 2966 c-11 -8 -26 -34 -33 -58 -189 -631 -983 -941 -1608 -627 -51 25 -93 45 -93 44 0 -8 139 -90 210 -124 524 -251 1282 -12 1532 483 45 88 98 218 98 237 0 42 -69 71 -106 45z"/><path d="M4478 2633 c-10 -2 -46 -41 -82 -86 -511 -652 -1480 -712 -2000 -124 -123 140 -156 172 -98 97 594 -772 1633 -795 2238 -49 87 107 57 192 -58 162z"/></g></g><g clip-path="url(#clipFade)" opacity="0.55"><g transform="translate(0.9472 -0.0000) scale(0.143635)"><g transform="translate(-20.515289,626.383869) scale(0.100000,-0.100000)" fill="#C9842D" stroke="none"><path d="M3130 6250 c-36 -9 -73 -44 -102 -98 -17 -31 -18 -32 -90 -32 -1203 -2 -2416 -1052 -2677 -2320 -50 -241 -56 -305 -56 -585 0 -371 18 -434 126 -451 35 -6 39 -10 44 -43 217 -1438 1517 -2532 3007 -2531 1432 1 2723 1078 2993 2498 23 120 -74 316 -120 242 -3 -6 -20 -10 -36 -10 -87 0 -119 -42 -155 -200 -484 -2132 -3123 -3010 -4742 -1577 -474 420 -769 897 -911 1476 -30 119 -28 133 16 162 77 50 79 58 65 242 -115 1543 850 2805 2341 3062 196 34 194 34 207 -14 21 -78 104 -118 220 -107 389 38 1077 -127 1508 -363 960 -523 1505 -1405 1505 -2436 1 -243 19 -231 36 25 88 1265 -784 2506 -2048 2914 -368 119 -934 192 -1131 146z"/><path d="M3025 5883 c-503 -42 -775 -128 -775 -243 0 -33 -21 -51 -85 -70 -64 -19 -293 -133 -388 -194 -1067 -674 -1488 -1971 -1030 -3171 59 -154 79 -175 168 -175 32 0 37 -4 64 -57 223 -440 649 -849 1126 -1085 66 -32 128 -63 138 -69 56 -31 262 -101 408 -138 1711 -440 3399 897 3399 2691 0 227 -14 260 -122 292 -10 3 -19 20 -23 43 -219 1294 -1536 2290 -2880 2176z m674 -258 c1030 -131 1861 -812 2146 -1757 57 -188 57 -191 2 -217 -78 -38 -81 -49 -83 -346 -3 -460 -89 -837 -265 -1162 -797 -1471 -2668 -1868 -3929 -834 -293 241 -649 698 -584 752 57 47 56 98 -7 256 -506 1279 -47 2577 1133 3202 134 71 130 71 169 27 46 -53 85 -62 167 -37 432 130 843 168 1251 116z"/><path d="M2966 5540 c-564 -65 -1231 -349 -1231 -526 0 -54 0 -54 -128 -175 -834 -791 -954 -2040 -291 -3029 165 -246 202 -279 293 -258 50 11 52 11 84 -18 1638 -1514 4364 16 3956 2220 -63 341 -143 511 -240 511 -41 0 -41 0 -96 95 -472 801 -1433 1284 -2347 1180z m702 -185 c626 -77 1181 -391 1537 -870 147 -197 153 -211 115 -249 -52 -54 -50 -86 14 -276 716 -2127 -1716 -3846 -3529 -2495 -142 106 -142 105 -120 150 24 53 13 85 -67 183 -686 848 -767 1981 -197 2768 90 124 112 151 210 257 106 113 116 119 156 87 43 -34 91 -26 169 26 507 341 1120 491 1712 419z"/><path d="M3020 5244 c-537 -64 -962 -257 -1336 -606 -169 -158 -188 -192 -149 -268 14 -28 13 -31 -41 -117 -608 -963 -240 -2351 784 -2962 109 -65 149 -68 197 -15 33 36 33 36 167 -9 220 -75 671 -143 643 -97 -3 6 -32 10 -63 10 -140 1 -474 66 -654 128 -48 16 -53 22 -59 53 -9 56 -26 76 -97 115 -973 540 -1393 1734 -942 2679 76 161 85 171 134 155 54 -18 85 -1 161 89 242 287 653 544 1049 657 245 70 669 96 896 56 327 -59 632 -188 860 -366 158 -123 172 -137 157 -160 -38 -58 -29 -100 40 -183 436 -534 571 -1293 336 -1893 -176 -451 -547 -851 -967 -1046 -160 -73 -458 -164 -540 -164 -25 0 -35 -13 -18 -24 23 -14 386 73 502 120 1241 501 1667 1934 914 3071 -113 171 -140 190 -220 161 -32 -11 -33 -10 -120 70 -434 398 -1077 612 -1634 546z"/><path d="M3030 4980 c-569 -67 -1082 -372 -1382 -821 -149 -224 -172 -292 -120 -351 29 -31 29 -31 10 -92 -316 -1007 399 -2171 1507 -2455 338 -87 495 -71 495 49 0 85 -47 114 -212 128 -1191 107 -2065 1245 -1768 2303 9 32 13 35 46 36 56 2 82 29 143 148 430 839 1439 1219 2278 860 159 -68 147 -50 -21 31 -293 142 -652 202 -976 164z"/><path d="M3065 4753 c-655 -82 -1187 -514 -1389 -1128 -69 -210 -70 -281 -5 -312 26 -13 26 -14 32 -155 37 -921 857 -1676 1812 -1671 350 2 595 71 595 168 0 33 3 36 102 87 987 506 1190 1900 398 2732 -273 287 -450 363 -450 193 0 -55 6 -62 119 -149 998 -770 957 -2148 -83 -2763 -90 -53 -83 -52 -118 -18 -37 35 -77 35 -188 1 -986 -301 -2029 360 -2165 1372 -23 169 -22 184 20 199 44 15 55 36 72 133 134 776 886 1361 1641 1280 187 -21 200 -8 25 23 -81 14 -333 19 -418 8z"/><path d="M3685 4728 c-56 -44 -15 -132 79 -167 1028 -385 1386 -1599 687 -2333 -43 -45 -46 -47 -88 -41 -39 5 -48 2 -115 -44 -778 -538 -1805 -285 -2220 545 -70 141 -82 139 -20 -3 370 -847 1349 -1194 2187 -775 211 106 240 130 240 208 0 60 1 62 51 114 548 569 514 1506 -76 2098 -256 255 -639 466 -725 398z"/><path d="M3267 4590 c-28 -25 -43 -30 -83 -30 -476 -1 -1017 -360 -1229 -816 -142 -306 -177 -775 -60 -814 27 -9 35 -18 45 -56 7 -24 15 -43 17 -40 2 2 -1 22 -8 44 -11 38 -10 43 14 71 25 30 25 30 20 218 -18 657 426 1219 1072 1356 123 27 195 31 195 14 0 -44 43 -69 131 -77 876 -81 1462 -909 1199 -1695 -36 -110 -33 -118 9 -23 240 536 -10 1276 -551 1634 -263 173 -684 290 -771 214z"/><path d="M3095 4420 c-104 -14 -127 -23 -147 -58 -10 -19 -13 -32 -7 -32 6 0 20 -12 32 -26 23 -29 11 -29 231 -3 667 78 1288 -480 1297 -1166 1 -60 2 -66 10 -40 12 36 3 191 -17 297 -124 658 -745 1113 -1399 1028z"/><path d="M2810 4301 c-335 -140 -601 -399 -711 -694 -16 -45 -35 -93 -41 -107 -95 -232 -27 -810 96 -810 30 0 60 52 52 91 -3 17 -1 29 5 29 6 0 7 -4 4 -10 -3 -5 -2 -10 3 -10 6 0 13 -11 16 -24 43 -174 158 -280 191 -176 10 31 18 25 73 -48 107 -143 178 -178 190 -94 4 26 24 29 43 5 16 -19 157 -113 170 -113 15 0 49 43 49 62 0 22 3 22 65 -1 87 -32 121 -35 139 -10 13 19 21 21 60 16 51 -7 76 -1 76 18 0 8 21 15 58 19 124 15 152 29 136 70 -9 23 -26 25 -104 15 -138 -17 -317 17 -395 75 -47 35 -55 39 -49 23 43 -113 -183 95 -254 234 -24 46 -41 71 -37 54 13 -61 79 -176 141 -247 68 -77 74 -117 9 -60 -151 133 -253 347 -274 572 -8 95 -8 95 -10 -3 -2 -192 58 -377 171 -521 41 -52 42 -82 1 -44 -208 194 -299 569 -217 893 3 15 1 13 -9 -5 -97 -170 -65 -561 63 -786 46 -79 18 -74 -30 6 -130 214 -179 437 -147 661 28 193 14 222 -32 69 -43 -140 -37 -371 14 -557 32 -116 16 -128 -24 -17 -81 223 -88 500 -17 629 13 22 29 56 36 75 14 37 80 151 135 235 51 77 212 227 283 264 44 23 115 -23 72 -46 -156 -86 -203 -139 -156 -179 28 -25 28 -25 -18 -74 -46 -49 -59 -93 -36 -116 7 -7 2 -21 -15 -45 -36 -48 -29 -83 23 -105 2 -1 -4 -20 -13 -42 -22 -55 -17 -86 15 -90 23 -3 29 4 50 55 68 164 172 284 315 362 25 13 30 19 15 15 -30 -8 -101 -45 -152 -79 -47 -31 -49 -22 -5 18 126 115 255 161 454 162 107 0 145 3 130 10 -62 27 -317 10 -421 -28 -144 -53 -143 -28 1 33 253 107 554 79 764 -71 16 -11 29 -18 29 -15 0 11 -126 90 -194 121 -177 81 -437 89 -624 18 -37 -14 -65 -13 -50 2 20 21 217 76 303 86 272 30 502 -48 735 -250 80 -70 49 -29 -49 63 -226 214 -584 308 -880 231 -56 -14 -84 -14 -70 -1 3 3 49 17 104 31 462 122 940 -92 1191 -533 53 -93 58 -79 8 21 -275 546 -900 785 -1436 550 -40 -18 -58 -32 -60 -46 -2 -13 -35 -42 -93 -81 -161 -110 -321 -292 -383 -437 -11 -24 -30 -58 -44 -74 -76 -91 -111 -396 -69 -605 14 -68 -5 -70 -24 -3 -155 529 192 1177 740 1380 29 10 29 11 5 11 -14 0 -54 -12 -90 -27z"/><path d="M3810 3681 c0 -11 22 -46 49 -78 107 -129 157 -278 149 -451 -4 -77 -2 -99 6 -85 6 10 12 78 14 151 4 146 13 165 32 66 21 -110 -20 -328 -78 -415 -50 -77 -91 -128 -132 -167 -25 -24 -36 -39 -25 -33 123 60 285 364 285 534 0 38 4 67 10 67 19 0 11 -170 -11 -250 -43 -157 -182 -358 -299 -433 -25 -16 -25 -16 8 -7 90 24 233 175 297 315 35 75 75 209 75 250 0 14 5 25 11 25 8 0 10 -19 5 -63 -34 -332 -252 -576 -629 -702 -105 -35 -97 -49 13 -20 320 83 545 266 656 534 43 103 55 100 23 -5 -128 -415 -654 -719 -1109 -641 -30 5 -29 4 10 -9 410 -142 1019 162 1196 597 101 248 74 492 -39 348 -24 -31 -24 -31 -29 62 -5 88 -21 149 -39 149 -5 0 -17 10 -29 22 -20 22 -20 22 -44 -1 -24 -23 -24 -23 -31 1 -30 100 -100 172 -145 148 -15 -8 -19 -5 -24 14 -7 27 -33 41 -50 26 -9 -7 -24 2 -51 30 -42 43 -75 52 -75 21z m490 -660 c0 -6 -4 -13 -10 -16 -5 -3 -10 1 -10 9 0 9 5 16 10 16 6 0 10 -4 10 -9z"/><path d="M4444 2966 c-11 -8 -26 -34 -33 -58 -189 -631 -983 -941 -1608 -627 -51 25 -93 45 -93 44 0 -8 139 -90 210 -124 524 -251 1282 -12 1532 483 45 88 98 218 98 237 0 42 -69 71 -106 45z"/><path d="M4478 2633 c-10 -2 -46 -41 -82 -86 -511 -652 -1480 -712 -2000 -124 -123 140 -156 172 -98 97 594 -772 1633 -795 2238 -49 87 107 57 192 -58 162z"/></g></g></g><g clip-path="url(#clipFull)"><g transform="translate(0.9472 -0.0000) scale(0.143635)"><g transform="translate(-20.515289,626.383869) scale(0.100000,-0.100000)" fill="#C9842D" stroke="none"><path d="M3130 6250 c-36 -9 -73 -44 -102 -98 -17 -31 -18 -32 -90 -32 -1203 -2 -2416 -1052 -2677 -2320 -50 -241 -56 -305 -56 -585 0 -371 18 -434 126 -451 35 -6 39 -10 44 -43 217 -1438 1517 -2532 3007 -2531 1432 1 2723 1078 2993 2498 23 120 -74 316 -120 242 -3 -6 -20 -10 -36 -10 -87 0 -119 -42 -155 -200 -484 -2132 -3123 -3010 -4742 -1577 -474 420 -769 897 -911 1476 -30 119 -28 133 16 162 77 50 79 58 65 242 -115 1543 850 2805 2341 3062 196 34 194 34 207 -14 21 -78 104 -118 220 -107 389 38 1077 -127 1508 -363 960 -523 1505 -1405 1505 -2436 1 -243 19 -231 36 25 88 1265 -784 2506 -2048 2914 -368 119 -934 192 -1131 146z"/><path d="M3025 5883 c-503 -42 -775 -128 -775 -243 0 -33 -21 -51 -85 -70 -64 -19 -293 -133 -388 -194 -1067 -674 -1488 -1971 -1030 -3171 59 -154 79 -175 168 -175 32 0 37 -4 64 -57 223 -440 649 -849 1126 -1085 66 -32 128 -63 138 -69 56 -31 262 -101 408 -138 1711 -440 3399 897 3399 2691 0 227 -14 260 -122 292 -10 3 -19 20 -23 43 -219 1294 -1536 2290 -2880 2176z m674 -258 c1030 -131 1861 -812 2146 -1757 57 -188 57 -191 2 -217 -78 -38 -81 -49 -83 -346 -3 -460 -89 -837 -265 -1162 -797 -1471 -2668 -1868 -3929 -834 -293 241 -649 698 -584 752 57 47 56 98 -7 256 -506 1279 -47 2577 1133 3202 134 71 130 71 169 27 46 -53 85 -62 167 -37 432 130 843 168 1251 116z"/><path d="M2966 5540 c-564 -65 -1231 -349 -1231 -526 0 -54 0 -54 -128 -175 -834 -791 -954 -2040 -291 -3029 165 -246 202 -279 293 -258 50 11 52 11 84 -18 1638 -1514 4364 16 3956 2220 -63 341 -143 511 -240 511 -41 0 -41 0 -96 95 -472 801 -1433 1284 -2347 1180z m702 -185 c626 -77 1181 -391 1537 -870 147 -197 153 -211 115 -249 -52 -54 -50 -86 14 -276 716 -2127 -1716 -3846 -3529 -2495 -142 106 -142 105 -120 150 24 53 13 85 -67 183 -686 848 -767 1981 -197 2768 90 124 112 151 210 257 106 113 116 119 156 87 43 -34 91 -26 169 26 507 341 1120 491 1712 419z"/><path d="M3020 5244 c-537 -64 -962 -257 -1336 -606 -169 -158 -188 -192 -149 -268 14 -28 13 -31 -41 -117 -608 -963 -240 -2351 784 -2962 109 -65 149 -68 197 -15 33 36 33 36 167 -9 220 -75 671 -143 643 -97 -3 6 -32 10 -63 10 -140 1 -474 66 -654 128 -48 16 -53 22 -59 53 -9 56 -26 76 -97 115 -973 540 -1393 1734 -942 2679 76 161 85 171 134 155 54 -18 85 -1 161 89 242 287 653 544 1049 657 245 70 669 96 896 56 327 -59 632 -188 860 -366 158 -123 172 -137 157 -160 -38 -58 -29 -100 40 -183 436 -534 571 -1293 336 -1893 -176 -451 -547 -851 -967 -1046 -160 -73 -458 -164 -540 -164 -25 0 -35 -13 -18 -24 23 -14 386 73 502 120 1241 501 1667 1934 914 3071 -113 171 -140 190 -220 161 -32 -11 -33 -10 -120 70 -434 398 -1077 612 -1634 546z"/><path d="M3030 4980 c-569 -67 -1082 -372 -1382 -821 -149 -224 -172 -292 -120 -351 29 -31 29 -31 10 -92 -316 -1007 399 -2171 1507 -2455 338 -87 495 -71 495 49 0 85 -47 114 -212 128 -1191 107 -2065 1245 -1768 2303 9 32 13 35 46 36 56 2 82 29 143 148 430 839 1439 1219 2278 860 159 -68 147 -50 -21 31 -293 142 -652 202 -976 164z"/><path d="M3065 4753 c-655 -82 -1187 -514 -1389 -1128 -69 -210 -70 -281 -5 -312 26 -13 26 -14 32 -155 37 -921 857 -1676 1812 -1671 350 2 595 71 595 168 0 33 3 36 102 87 987 506 1190 1900 398 2732 -273 287 -450 363 -450 193 0 -55 6 -62 119 -149 998 -770 957 -2148 -83 -2763 -90 -53 -83 -52 -118 -18 -37 35 -77 35 -188 1 -986 -301 -2029 360 -2165 1372 -23 169 -22 184 20 199 44 15 55 36 72 133 134 776 886 1361 1641 1280 187 -21 200 -8 25 23 -81 14 -333 19 -418 8z"/><path d="M3685 4728 c-56 -44 -15 -132 79 -167 1028 -385 1386 -1599 687 -2333 -43 -45 -46 -47 -88 -41 -39 5 -48 2 -115 -44 -778 -538 -1805 -285 -2220 545 -70 141 -82 139 -20 -3 370 -847 1349 -1194 2187 -775 211 106 240 130 240 208 0 60 1 62 51 114 548 569 514 1506 -76 2098 -256 255 -639 466 -725 398z"/><path d="M3267 4590 c-28 -25 -43 -30 -83 -30 -476 -1 -1017 -360 -1229 -816 -142 -306 -177 -775 -60 -814 27 -9 35 -18 45 -56 7 -24 15 -43 17 -40 2 2 -1 22 -8 44 -11 38 -10 43 14 71 25 30 25 30 20 218 -18 657 426 1219 1072 1356 123 27 195 31 195 14 0 -44 43 -69 131 -77 876 -81 1462 -909 1199 -1695 -36 -110 -33 -118 9 -23 240 536 -10 1276 -551 1634 -263 173 -684 290 -771 214z"/><path d="M3095 4420 c-104 -14 -127 -23 -147 -58 -10 -19 -13 -32 -7 -32 6 0 20 -12 32 -26 23 -29 11 -29 231 -3 667 78 1288 -480 1297 -1166 1 -60 2 -66 10 -40 12 36 3 191 -17 297 -124 658 -745 1113 -1399 1028z"/><path d="M2810 4301 c-335 -140 -601 -399 -711 -694 -16 -45 -35 -93 -41 -107 -95 -232 -27 -810 96 -810 30 0 60 52 52 91 -3 17 -1 29 5 29 6 0 7 -4 4 -10 -3 -5 -2 -10 3 -10 6 0 13 -11 16 -24 43 -174 158 -280 191 -176 10 31 18 25 73 -48 107 -143 178 -178 190 -94 4 26 24 29 43 5 16 -19 157 -113 170 -113 15 0 49 43 49 62 0 22 3 22 65 -1 87 -32 121 -35 139 -10 13 19 21 21 60 16 51 -7 76 -1 76 18 0 8 21 15 58 19 124 15 152 29 136 70 -9 23 -26 25 -104 15 -138 -17 -317 17 -395 75 -47 35 -55 39 -49 23 43 -113 -183 95 -254 234 -24 46 -41 71 -37 54 13 -61 79 -176 141 -247 68 -77 74 -117 9 -60 -151 133 -253 347 -274 572 -8 95 -8 95 -10 -3 -2 -192 58 -377 171 -521 41 -52 42 -82 1 -44 -208 194 -299 569 -217 893 3 15 1 13 -9 -5 -97 -170 -65 -561 63 -786 46 -79 18 -74 -30 6 -130 214 -179 437 -147 661 28 193 14 222 -32 69 -43 -140 -37 -371 14 -557 32 -116 16 -128 -24 -17 -81 223 -88 500 -17 629 13 22 29 56 36 75 14 37 80 151 135 235 51 77 212 227 283 264 44 23 115 -23 72 -46 -156 -86 -203 -139 -156 -179 28 -25 28 -25 -18 -74 -46 -49 -59 -93 -36 -116 7 -7 2 -21 -15 -45 -36 -48 -29 -83 23 -105 2 -1 -4 -20 -13 -42 -22 -55 -17 -86 15 -90 23 -3 29 4 50 55 68 164 172 284 315 362 25 13 30 19 15 15 -30 -8 -101 -45 -152 -79 -47 -31 -49 -22 -5 18 126 115 255 161 454 162 107 0 145 3 130 10 -62 27 -317 10 -421 -28 -144 -53 -143 -28 1 33 253 107 554 79 764 -71 16 -11 29 -18 29 -15 0 11 -126 90 -194 121 -177 81 -437 89 -624 18 -37 -14 -65 -13 -50 2 20 21 217 76 303 86 272 30 502 -48 735 -250 80 -70 49 -29 -49 63 -226 214 -584 308 -880 231 -56 -14 -84 -14 -70 -1 3 3 49 17 104 31 462 122 940 -92 1191 -533 53 -93 58 -79 8 21 -275 546 -900 785 -1436 550 -40 -18 -58 -32 -60 -46 -2 -13 -35 -42 -93 -81 -161 -110 -321 -292 -383 -437 -11 -24 -30 -58 -44 -74 -76 -91 -111 -396 -69 -605 14 -68 -5 -70 -24 -3 -155 529 192 1177 740 1380 29 10 29 11 5 11 -14 0 -54 -12 -90 -27z"/><path d="M3810 3681 c0 -11 22 -46 49 -78 107 -129 157 -278 149 -451 -4 -77 -2 -99 6 -85 6 10 12 78 14 151 4 146 13 165 32 66 21 -110 -20 -328 -78 -415 -50 -77 -91 -128 -132 -167 -25 -24 -36 -39 -25 -33 123 60 285 364 285 534 0 38 4 67 10 67 19 0 11 -170 -11 -250 -43 -157 -182 -358 -299 -433 -25 -16 -25 -16 8 -7 90 24 233 175 297 315 35 75 75 209 75 250 0 14 5 25 11 25 8 0 10 -19 5 -63 -34 -332 -252 -576 -629 -702 -105 -35 -97 -49 13 -20 320 83 545 266 656 534 43 103 55 100 23 -5 -128 -415 -654 -719 -1109 -641 -30 5 -29 4 10 -9 410 -142 1019 162 1196 597 101 248 74 492 -39 348 -24 -31 -24 -31 -29 62 -5 88 -21 149 -39 149 -5 0 -17 10 -29 22 -20 22 -20 22 -44 -1 -24 -23 -24 -23 -31 1 -30 100 -100 172 -145 148 -15 -8 -19 -5 -24 14 -7 27 -33 41 -50 26 -9 -7 -24 2 -51 30 -42 43 -75 52 -75 21z m490 -660 c0 -6 -4 -13 -10 -16 -5 -3 -10 1 -10 9 0 9 5 16 10 16 6 0 10 -4 10 -9z"/><path d="M4444 2966 c-11 -8 -26 -34 -33 -58 -189 -631 -983 -941 -1608 -627 -51 25 -93 45 -93 44 0 -8 139 -90 210 -124 524 -251 1282 -12 1532 483 45 88 98 218 98 237 0 42 -69 71 -106 45z"/><path d="M4478 2633 c-10 -2 -46 -41 -82 -86 -511 -652 -1480 -712 -2000 -124 -123 140 -156 172 -98 97 594 -772 1633 -795 2238 -49 87 107 57 192 -58 162z"/></g></g></g><g fill="#3A7BD5" transform="translate(104.57 71.62) scale(0.04057971014492753 -0.04057971014492753)"><g transform="translate(0 0)"><path d="M939 1372Q939 1400 976 1400H1298Q1335 1400 1335 1372Q1335 1354 1308 1343L1270 1330Q1236 1317 1210.5 1285.0Q1185 1253 1166 1191L839 172Q824 124 824 85V32Q824 0 793 0H546Q514 0 514 33V85Q514 100 509.0 117.5Q504 135 497 158L125 1274Q117 1299 107.5 1310.5Q98 1322 81 1329L39 1341Q13 1352 13 1372Q13 1400 50 1400H533Q571 1400 571 1372Q571 1353 542 1343L469 1330Q444 1323 439.0 1307.0Q434 1291 444 1258L782 228L1093 1195Q1109 1246 1095.0 1280.0Q1081 1314 1022 1332L967 1343Q939 1353 939 1372Z"/></g><g transform="translate(1335 0)"><path d="M925 558Q925 488 850 488H295Q308 316 394.5 229.5Q481 143 617 143Q712 143 780.5 188.5Q849 234 873 313Q891 335 903 335Q923 335 922 304Q917 213 863.5 139.0Q810 65 719.5 21.0Q629 -23 514 -23Q378 -23 274.5 34.5Q171 92 112.5 196.0Q54 300 54 439Q54 586 111.5 698.5Q169 811 275.0 874.5Q381 938 526 938Q650 938 739.5 889.0Q829 840 877.0 754.0Q925 668 925 558ZM493 876Q404 876 348.5 791.0Q293 706 293 542V538H628Q663 538 663 572Q663 724 615.0 800.0Q567 876 493 876Z"/></g><g transform="translate(2314 0)"><path d="M414 890 420 696Q453 816 524.0 876.5Q595 937 676 937Q761 937 808.0 886.5Q855 836 855 742Q855 659 819.0 618.5Q783 578 727 578Q617 578 615 693V727Q614 789 557 789Q506 789 464.5 722.0Q423 655 423 516V116Q423 75 463 68L555 54Q584 48 584 26Q584 0 549 0H93Q59 0 59 26Q59 44 85 53L131 62Q161 70 161 111V757Q161 789 137 792L77 794Q55 798 55 817Q55 835 85 846L315 913Q345 924 359.5 927.5Q374 931 383 931Q410 931 414 890Z"/></g><g transform="translate(3191 0)"><path d="M279 1075Q206 1075 162.0 1116.5Q118 1158 118 1222Q118 1286 162.5 1327.0Q207 1368 279 1368Q352 1368 397.0 1327.0Q442 1286 442 1222Q442 1158 397.0 1116.5Q352 1075 279 1075ZM424 894V113Q424 70 454 62L500 53Q525 45 525 26Q525 0 491 0H93Q60 0 60 26Q60 44 84 52L132 62Q162 71 162 112V757Q162 787 138 790L80 792Q57 796 57 815Q57 833 86 844L318 918Q363 934 383 934Q424 934 424 894Z"/></g><g transform="translate(3755 0)"><path d="M456 114Q456 71 493 67L600 53Q629 50 629 26Q629 0 596 0H105Q73 0 73 24Q73 45 101 53L159 64Q197 74 197 110V785Q197 813 165 824L86 844Q52 857 52 876Q52 899 83 899H198V900Q198 939 173.5 977.0Q149 1015 124.5 1062.0Q100 1109 100 1177Q100 1299 182.0 1372.0Q264 1445 407 1445Q543 1445 613.5 1381.0Q684 1317 684 1230Q684 1169 653.0 1137.5Q622 1106 571 1106Q518 1106 485.0 1140.5Q452 1175 452 1233V1310Q452 1396 368 1396Q254 1395 254 1261Q254 1199 282.5 1149.5Q311 1100 349.0 1058.5Q387 1017 415.5 978.5Q444 940 444 899H625Q658 899 658 876Q658 836 586 836H456Z"/></g><g transform="translate(4439 0)"><path d="M279 1075Q206 1075 162.0 1116.5Q118 1158 118 1222Q118 1286 162.5 1327.0Q207 1368 279 1368Q352 1368 397.0 1327.0Q442 1286 442 1222Q442 1158 397.0 1116.5Q352 1075 279 1075ZM424 894V113Q424 70 454 62L500 53Q525 45 525 26Q525 0 491 0H93Q60 0 60 26Q60 44 84 52L132 62Q162 71 162 112V757Q162 787 138 790L80 792Q57 796 57 815Q57 833 86 844L318 918Q363 934 383 934Q424 934 424 894Z"/></g><g transform="translate(5003 0)"><path d="M66 203Q66 320 168.0 392.0Q270 464 468 464Q512 464 547.5 458.5Q583 453 613 443V743Q613 814 580.0 852.5Q547 891 486 891Q425 891 393.5 863.0Q362 835 362 797V712Q362 657 324.0 623.5Q286 590 222 590Q112 590 112 694Q112 751 159.0 807.5Q206 864 298.5 900.5Q391 937 527 937Q702 937 788.0 865.0Q874 793 874 667V148Q874 87 917 87Q954 87 968 126Q975 137 985 137Q1000 137 1000 116Q1000 90 979.0 57.5Q958 25 915.0 1.5Q872 -22 805 -22Q726 -22 681.0 9.0Q636 40 629 93Q577 37 501.5 7.5Q426 -22 342 -22Q219 -22 142.5 40.5Q66 103 66 203ZM331 244Q331 163 370.5 120.5Q410 78 472 78Q551 78 613 132V398Q586 408 558.0 413.5Q530 419 497 419Q418 419 374.5 373.0Q331 327 331 244Z"/></g><g transform="translate(6029 0)"><path d="M385 1445V805Q512 937 674 937Q788 937 876.5 880.5Q965 824 1015.5 721.5Q1066 619 1066 483Q1066 330 1007.0 216.5Q948 103 846.0 40.0Q744 -23 615 -23Q458 -23 360 77L226 2Q196 -10 182.5 -14.0Q169 -18 156 -18Q123 -18 123 15V1308Q123 1339 99 1342L41 1344Q18 1348 18 1367Q18 1385 47 1396L279 1469Q324 1486 344 1486Q385 1486 385 1445ZM575 838Q471 838 385 737V137Q457 54 560 54Q660 54 727.5 148.5Q795 243 795 456Q795 653 733.5 745.5Q672 838 575 838Z"/></g><g transform="translate(7154 0)"><path d="M427 1445V113Q427 70 457 62L503 53Q528 45 528 26Q528 0 494 0H96Q63 0 63 26Q63 44 89 53L135 62Q165 71 165 112V1308Q165 1339 141 1342L83 1344Q60 1348 60 1367Q60 1385 89 1396L321 1469Q366 1486 386 1486Q427 1486 427 1445Z"/></g><g transform="translate(7726 0)"><path d="M925 558Q925 488 850 488H295Q308 316 394.5 229.5Q481 143 617 143Q712 143 780.5 188.5Q849 234 873 313Q891 335 903 335Q923 335 922 304Q917 213 863.5 139.0Q810 65 719.5 21.0Q629 -23 514 -23Q378 -23 274.5 34.5Q171 92 112.5 196.0Q54 300 54 439Q54 586 111.5 698.5Q169 811 275.0 874.5Q381 938 526 938Q650 938 739.5 889.0Q829 840 877.0 754.0Q925 668 925 558ZM493 876Q404 876 348.5 791.0Q293 706 293 542V538H628Q663 538 663 572Q663 724 615.0 800.0Q567 876 493 876Z"/></g></g></svg>
